<mxfile host="Electron" modified="2024-06-14T02:46:23.293Z" agent="Mozilla/5.0 (Windows NT 10.0; Win64; x64) AppleWebKit/537.36 (KHTML, like Gecko) draw.io/21.8.2 Chrome/114.0.5735.289 Electron/25.8.1 Safari/537.36" etag="VT4pyKWmZtcTxFER0rn1" version="21.8.2" type="device" pages="3">
  <diagram name="Página-1" id="9ji-iE2OT7xZp09ILepd">
    <mxGraphModel dx="858" dy="508" grid="1" gridSize="10" guides="1" tooltips="1" connect="1" arrows="1" fold="1" page="1" pageScale="1" pageWidth="850" pageHeight="1100" math="0" shadow="0">
      <root>
        <mxCell id="0" />
        <mxCell id="1" parent="0" />
        <mxCell id="_LZqVzjVMBElatBwdmJk-1" value="" style="rounded=0;whiteSpace=wrap;html=1;" parent="1" vertex="1">
          <mxGeometry x="360" y="240" width="240" height="100" as="geometry" />
        </mxCell>
        <mxCell id="_LZqVzjVMBElatBwdmJk-2" value="" style="endArrow=none;html=1;rounded=0;entryX=1.001;entryY=0.2;entryDx=0;entryDy=0;entryPerimeter=0;" parent="1" target="_LZqVzjVMBElatBwdmJk-1" edge="1">
          <mxGeometry width="50" height="50" relative="1" as="geometry">
            <mxPoint x="360" y="320" as="sourcePoint" />
            <mxPoint x="598" y="260" as="targetPoint" />
          </mxGeometry>
        </mxCell>
        <mxCell id="_LZqVzjVMBElatBwdmJk-4" value="&lt;font face=&quot;Times New Roman&quot;&gt;Pago de intereses&lt;/font&gt;" style="text;strokeColor=none;align=center;fillColor=none;html=1;verticalAlign=middle;whiteSpace=wrap;rounded=0;" parent="1" vertex="1">
          <mxGeometry x="370" y="252.5" width="60" height="30" as="geometry" />
        </mxCell>
        <mxCell id="_LZqVzjVMBElatBwdmJk-5" value="&lt;font face=&quot;Times New Roman&quot;&gt;Amortización&lt;/font&gt;" style="text;strokeColor=none;align=center;fillColor=none;html=1;verticalAlign=middle;whiteSpace=wrap;rounded=0;" parent="1" vertex="1">
          <mxGeometry x="520" y="297.5" width="70" height="30" as="geometry" />
        </mxCell>
        <mxCell id="_LZqVzjVMBElatBwdmJk-6" value="&lt;font style=&quot;font-size: 8px;&quot; face=&quot;Times New Roman&quot;&gt;Cuota&lt;/font&gt;" style="text;strokeColor=none;align=center;fillColor=none;html=1;verticalAlign=middle;whiteSpace=wrap;rounded=0;" parent="1" vertex="1">
          <mxGeometry x="330" y="230" width="30" height="10" as="geometry" />
        </mxCell>
        <mxCell id="_LZqVzjVMBElatBwdmJk-7" value="&lt;font style=&quot;font-size: 8px;&quot; face=&quot;Times New Roman&quot;&gt;Tiempo&lt;/font&gt;" style="text;strokeColor=none;align=center;fillColor=none;html=1;verticalAlign=middle;whiteSpace=wrap;rounded=0;" parent="1" vertex="1">
          <mxGeometry x="600" y="340" width="30" height="10" as="geometry" />
        </mxCell>
        <mxCell id="_LZqVzjVMBElatBwdmJk-8" value="" style="endArrow=none;html=1;rounded=0;strokeColor=#3333FF;" parent="1" edge="1">
          <mxGeometry width="50" height="50" relative="1" as="geometry">
            <mxPoint x="479.79" y="360" as="sourcePoint" />
            <mxPoint x="479.79" y="220" as="targetPoint" />
          </mxGeometry>
        </mxCell>
        <mxCell id="_LZqVzjVMBElatBwdmJk-9" value="" style="shape=curlyBracket;whiteSpace=wrap;html=1;rounded=1;labelPosition=left;verticalLabelPosition=middle;align=right;verticalAlign=middle;" parent="1" vertex="1">
          <mxGeometry x="460" y="245" width="10" height="45" as="geometry" />
        </mxCell>
        <mxCell id="_LZqVzjVMBElatBwdmJk-10" value="" style="shape=curlyBracket;whiteSpace=wrap;html=1;rounded=1;labelPosition=left;verticalLabelPosition=middle;align=right;verticalAlign=middle;rotation=-180;" parent="1" vertex="1">
          <mxGeometry x="490" y="290" width="10" height="45" as="geometry" />
        </mxCell>
        <mxCell id="_LZqVzjVMBElatBwdmJk-12" value="&lt;font style=&quot;font-size: 8px;&quot; face=&quot;Times New Roman&quot;&gt;t2&lt;/font&gt;" style="text;strokeColor=none;align=center;fillColor=none;html=1;verticalAlign=middle;whiteSpace=wrap;rounded=0;" parent="1" vertex="1">
          <mxGeometry x="465" y="360" width="30" height="10" as="geometry" />
        </mxCell>
      </root>
    </mxGraphModel>
  </diagram>
  <diagram id="BzP1p1JJc4LrP-sNLtun" name="Página-2">
    <mxGraphModel dx="346" dy="203" grid="1" gridSize="10" guides="1" tooltips="1" connect="1" arrows="1" fold="1" page="1" pageScale="1" pageWidth="850" pageHeight="1100" math="0" shadow="0">
      <root>
        <mxCell id="0" />
        <mxCell id="1" parent="0" />
        <mxCell id="g3yY-VGWjeg3ZmJhEOQD-1" value="" style="rounded=0;whiteSpace=wrap;html=1;" vertex="1" parent="1">
          <mxGeometry x="390" y="490" width="140" height="110" as="geometry" />
        </mxCell>
        <mxCell id="g3yY-VGWjeg3ZmJhEOQD-2" value="" style="endArrow=none;html=1;rounded=0;entryX=0.5;entryY=0;entryDx=0;entryDy=0;exitX=0.5;exitY=1;exitDx=0;exitDy=0;" edge="1" parent="1" source="g3yY-VGWjeg3ZmJhEOQD-1" target="g3yY-VGWjeg3ZmJhEOQD-1">
          <mxGeometry width="50" height="50" relative="1" as="geometry">
            <mxPoint x="430" y="580" as="sourcePoint" />
            <mxPoint x="480" y="530" as="targetPoint" />
          </mxGeometry>
        </mxCell>
        <mxCell id="g3yY-VGWjeg3ZmJhEOQD-3" value="" style="endArrow=none;html=1;rounded=0;exitX=1.003;exitY=0.547;exitDx=0;exitDy=0;exitPerimeter=0;" edge="1" parent="1" source="g3yY-VGWjeg3ZmJhEOQD-1">
          <mxGeometry width="50" height="50" relative="1" as="geometry">
            <mxPoint x="530" y="550.41" as="sourcePoint" />
            <mxPoint x="465.13" y="550" as="targetPoint" />
          </mxGeometry>
        </mxCell>
        <mxCell id="g3yY-VGWjeg3ZmJhEOQD-5" value="&lt;font face=&quot;Times New Roman&quot;&gt;A&lt;/font&gt;" style="text;strokeColor=none;align=center;fillColor=none;html=1;verticalAlign=middle;whiteSpace=wrap;rounded=0;" vertex="1" parent="1">
          <mxGeometry x="415" y="530" width="20" height="20" as="geometry" />
        </mxCell>
        <mxCell id="g3yY-VGWjeg3ZmJhEOQD-9" value="" style="rounded=0;whiteSpace=wrap;html=1;" vertex="1" parent="1">
          <mxGeometry x="460" y="550" width="70" height="50" as="geometry" />
        </mxCell>
        <mxCell id="g3yY-VGWjeg3ZmJhEOQD-10" value="" style="rounded=0;whiteSpace=wrap;html=1;" vertex="1" parent="1">
          <mxGeometry x="460" y="490" width="70" height="60" as="geometry" />
        </mxCell>
        <mxCell id="g3yY-VGWjeg3ZmJhEOQD-6" value="&lt;font face=&quot;Times New Roman&quot;&gt;D&lt;/font&gt;" style="text;strokeColor=none;align=center;fillColor=none;html=1;verticalAlign=middle;whiteSpace=wrap;rounded=0;" vertex="1" parent="1">
          <mxGeometry x="485" y="510" width="20" height="20" as="geometry" />
        </mxCell>
        <mxCell id="g3yY-VGWjeg3ZmJhEOQD-7" value="&lt;font face=&quot;Times New Roman&quot;&gt;PAT&lt;/font&gt;" style="text;strokeColor=none;align=center;fillColor=none;html=1;verticalAlign=middle;whiteSpace=wrap;rounded=0;" vertex="1" parent="1">
          <mxGeometry x="485" y="560" width="20" height="20" as="geometry" />
        </mxCell>
        <mxCell id="g3yY-VGWjeg3ZmJhEOQD-11" value="&lt;font face=&quot;Times New Roman&quot; style=&quot;font-size: 6px;&quot;&gt;Activos&lt;/font&gt;" style="text;strokeColor=none;align=center;fillColor=none;html=1;verticalAlign=middle;whiteSpace=wrap;rounded=0;" vertex="1" parent="1">
          <mxGeometry x="413" y="550" width="25" height="10" as="geometry" />
        </mxCell>
        <mxCell id="g3yY-VGWjeg3ZmJhEOQD-12" value="&lt;font face=&quot;Times New Roman&quot; style=&quot;font-size: 6px;&quot;&gt;Deuda&lt;/font&gt;" style="text;strokeColor=none;align=center;fillColor=none;html=1;verticalAlign=middle;whiteSpace=wrap;rounded=0;" vertex="1" parent="1">
          <mxGeometry x="482.5" y="530" width="25" height="10" as="geometry" />
        </mxCell>
        <mxCell id="g3yY-VGWjeg3ZmJhEOQD-13" value="&lt;font face=&quot;Times New Roman&quot; style=&quot;font-size: 6px;&quot;&gt;Patrimonio&lt;/font&gt;" style="text;strokeColor=none;align=center;fillColor=none;html=1;verticalAlign=middle;whiteSpace=wrap;rounded=0;" vertex="1" parent="1">
          <mxGeometry x="481.25" y="580" width="27.5" height="5" as="geometry" />
        </mxCell>
        <mxCell id="g3yY-VGWjeg3ZmJhEOQD-15" value="" style="endArrow=classic;html=1;rounded=0;" edge="1" parent="1">
          <mxGeometry width="50" height="50" relative="1" as="geometry">
            <mxPoint x="370" y="490" as="sourcePoint" />
            <mxPoint x="370" y="600" as="targetPoint" />
          </mxGeometry>
        </mxCell>
        <mxCell id="g3yY-VGWjeg3ZmJhEOQD-16" value="" style="endArrow=classic;html=1;rounded=0;" edge="1" parent="1">
          <mxGeometry width="50" height="50" relative="1" as="geometry">
            <mxPoint x="550" y="490" as="sourcePoint" />
            <mxPoint x="550" y="600" as="targetPoint" />
          </mxGeometry>
        </mxCell>
        <mxCell id="g3yY-VGWjeg3ZmJhEOQD-17" value="&lt;div style=&quot;font-size: 5px;&quot;&gt;&lt;span style=&quot;font-size: 5px; background-color: initial;&quot;&gt;&lt;font style=&quot;font-size: 5px;&quot;&gt;+ Liquido&lt;/font&gt;&lt;/span&gt;&lt;/div&gt;&lt;font style=&quot;font-size: 5px;&quot;&gt;&lt;div style=&quot;font-size: 5px;&quot;&gt;&lt;span style=&quot;background-color: initial; font-size: 5px;&quot;&gt;- Riesgo&lt;/span&gt;&lt;/div&gt;&lt;div style=&quot;font-size: 5px;&quot;&gt;&lt;span style=&quot;background-color: initial; font-size: 5px;&quot;&gt;- Rentable&lt;/span&gt;&lt;/div&gt;&lt;/font&gt;" style="text;strokeColor=none;align=left;fillColor=none;html=1;verticalAlign=middle;whiteSpace=wrap;rounded=0;fontSize=5;fontFamily=Times New Roman;" vertex="1" parent="1">
          <mxGeometry x="330" y="490" width="30" height="30" as="geometry" />
        </mxCell>
        <mxCell id="g3yY-VGWjeg3ZmJhEOQD-18" value="&lt;div style=&quot;font-size: 5px;&quot;&gt;&lt;span style=&quot;font-size: 5px; background-color: initial;&quot;&gt;&lt;font style=&quot;font-size: 5px;&quot;&gt;- Liquido&lt;/font&gt;&lt;/span&gt;&lt;/div&gt;&lt;font style=&quot;font-size: 5px;&quot;&gt;&lt;div style=&quot;font-size: 5px;&quot;&gt;&lt;span style=&quot;background-color: initial; font-size: 5px;&quot;&gt;+ Riesgo&lt;/span&gt;&lt;/div&gt;&lt;div style=&quot;font-size: 5px;&quot;&gt;&lt;span style=&quot;background-color: initial; font-size: 5px;&quot;&gt;+ Rentable&lt;/span&gt;&lt;/div&gt;&lt;/font&gt;" style="text;strokeColor=none;align=left;fillColor=none;html=1;verticalAlign=middle;whiteSpace=wrap;rounded=0;fontSize=5;fontFamily=Times New Roman;" vertex="1" parent="1">
          <mxGeometry x="330" y="565" width="30" height="30" as="geometry" />
        </mxCell>
        <mxCell id="g3yY-VGWjeg3ZmJhEOQD-19" value="&lt;div style=&quot;font-size: 5px;&quot;&gt;&lt;span style=&quot;font-size: 5px; background-color: initial;&quot;&gt;&lt;font style=&quot;font-size: 5px;&quot;&gt;+ Exigible&lt;/font&gt;&lt;/span&gt;&lt;/div&gt;&lt;font style=&quot;font-size: 5px;&quot;&gt;&lt;div style=&quot;font-size: 5px;&quot;&gt;&lt;span style=&quot;background-color: initial; font-size: 5px;&quot;&gt;+ Riesgo&lt;/span&gt;&lt;/div&gt;&lt;div style=&quot;font-size: 5px;&quot;&gt;&lt;span style=&quot;background-color: initial; font-size: 5px;&quot;&gt;+ Rentable&lt;/span&gt;&lt;/div&gt;&lt;/font&gt;" style="text;strokeColor=none;align=left;fillColor=none;html=1;verticalAlign=middle;whiteSpace=wrap;rounded=0;fontSize=5;fontFamily=Times New Roman;" vertex="1" parent="1">
          <mxGeometry x="560" y="490" width="30" height="30" as="geometry" />
        </mxCell>
        <mxCell id="g3yY-VGWjeg3ZmJhEOQD-20" value="&lt;div style=&quot;font-size: 5px;&quot;&gt;&lt;span style=&quot;font-size: 5px; background-color: initial;&quot;&gt;&lt;font style=&quot;font-size: 5px;&quot;&gt;- Exigible&lt;/font&gt;&lt;/span&gt;&lt;/div&gt;&lt;font style=&quot;font-size: 5px;&quot;&gt;&lt;div style=&quot;font-size: 5px;&quot;&gt;&lt;span style=&quot;background-color: initial; font-size: 5px;&quot;&gt;- Riesgo&lt;/span&gt;&lt;/div&gt;&lt;div style=&quot;font-size: 5px;&quot;&gt;&lt;span style=&quot;background-color: initial; font-size: 5px;&quot;&gt;- Rentable&lt;/span&gt;&lt;/div&gt;&lt;/font&gt;" style="text;strokeColor=none;align=left;fillColor=none;html=1;verticalAlign=middle;whiteSpace=wrap;rounded=0;fontSize=5;fontFamily=Times New Roman;" vertex="1" parent="1">
          <mxGeometry x="560" y="565" width="30" height="30" as="geometry" />
        </mxCell>
      </root>
    </mxGraphModel>
  </diagram>
  <diagram id="bPGr3J6fjqHJ_0pxT6dB" name="Página-3">
    <mxGraphModel dx="715" dy="423" grid="1" gridSize="10" guides="1" tooltips="1" connect="1" arrows="1" fold="1" page="1" pageScale="1" pageWidth="850" pageHeight="1100" math="0" shadow="0">
      <root>
        <mxCell id="0" />
        <mxCell id="1" parent="0" />
        <mxCell id="X9CBOxH_zqh3Oj_qdNqN-2" value="" style="html=1;shadow=0;dashed=0;align=center;verticalAlign=middle;shape=mxgraph.arrows2.uTurnArrow;dy=11;arrowHead=43;dx2=25;rotation=-180;fillColor=#e3c800;strokeColor=#B09500;fontColor=#000000;" vertex="1" parent="1">
          <mxGeometry x="500" y="200" width="40" height="80" as="geometry" />
        </mxCell>
        <mxCell id="X9CBOxH_zqh3Oj_qdNqN-3" value="" style="rounded=0;whiteSpace=wrap;html=1;strokeWidth=2;" vertex="1" parent="1">
          <mxGeometry x="280" y="120" width="160" height="240" as="geometry" />
        </mxCell>
        <mxCell id="X9CBOxH_zqh3Oj_qdNqN-5" value="&lt;font style=&quot;font-size: 16px;&quot; face=&quot;Times New Roman&quot;&gt;PCP&lt;br&gt;50%&lt;/font&gt;" style="rounded=0;whiteSpace=wrap;html=1;fontStyle=1" vertex="1" parent="1">
          <mxGeometry x="360" y="120" width="80" height="120" as="geometry" />
        </mxCell>
        <mxCell id="X9CBOxH_zqh3Oj_qdNqN-6" value="&lt;font style=&quot;font-size: 16px;&quot; face=&quot;Times New Roman&quot;&gt;AC&lt;br&gt;30%&lt;/font&gt;" style="rounded=0;whiteSpace=wrap;html=1;fontStyle=1" vertex="1" parent="1">
          <mxGeometry x="280" y="120" width="80" height="80" as="geometry" />
        </mxCell>
        <mxCell id="X9CBOxH_zqh3Oj_qdNqN-7" value="" style="endArrow=none;dashed=1;html=1;rounded=0;exitX=0;exitY=0.5;exitDx=0;exitDy=0;" edge="1" parent="1">
          <mxGeometry width="50" height="50" relative="1" as="geometry">
            <mxPoint x="280" y="241" as="sourcePoint" />
            <mxPoint x="360" y="240" as="targetPoint" />
          </mxGeometry>
        </mxCell>
      </root>
    </mxGraphModel>
  </diagram>
</mxfile>
